# xmcd
#
# Track frame offsets: 
#        150
#        11537
#        24941
#        38469
#        51938
#        64673
#        79891
#        92216
#        105424
#        119703
#        133031
#        146485
#        159739
#        173455
#        186407
#        200000
#        212912
#        226840
#        238794
#        252014
#        264964
#        278510
#        293373
#        306277
#
# Disc length: 4252 seconds
#
# Revision: 0
# Processed by: cddbd v1.5.2PL0 Copyright (c) Steve Scherf et al.
# Submitted via: ExactAudioCopy v0.99pb5
#
DISCID=48109a18
DTITLE=Various Artist - 100 Years Of The Blues - From Mystical Gods To Modern
DTITLE=Day - Disc 1
DYEAR=2011
DGENRE=Blues
TTITLE0=Robert Johnson - Crossroads Blues
TTITLE1=Bessie Smith - Nobody Knows You When You're Down And Out
TTITLE2=Blind Lemon Jefferson - Matchbox Blues
TTITLE3=Blind Blake - Blind Arthur's Breakdown
TTITLE4=Memphis Jug Band and Hattie Hart and Ben Ramey - Cocaine Habit Blu
TTITLE4=es
TTITLE5=Blind Willie McTell - Lay Some Flowers On My Grave
TTITLE6=Lonnie Johnson - Mr Johnsons Swing
TTITLE7=Memphis Minnie - Keep It To Yourself
TTITLE8=Sleepy John Estes - Drop Down Mama
TTITLE9=Leroy Car - When The Sun Goes Down
TTITLE10=Skip James - Devil Got My Woman
TTITLE11=Blind Boy Fuller - Step It Up And Go
TTITLE12=Black Ace - Whiskey And Woman
TTITLE13=Rooservelt Sykes - The Honey Dripper
TTITLE14=Victoria Spivey - Black Snake Swing
TTITLE15=Kokomo Arnold - Old Original Kokomo Blues
TTITLE16=Lead Belly - My Friend Blind Lemon
TTITLE17=Bukka White - Parchman Farm Blues
TTITLE18=Mississippi John Hurt - Stack O'Lee Blues
TTITLE19=Robert Petway - Catfish Blues
TTITLE20=Sonny Boy Williamson - Good Morning Little Schoolgirl
TTITLE21=Blind Willie Johnson - John The Revelator
TTITLE22=Cliff Carlisle - Hobo Blues
TTITLE23=Big Joe Williams - Baby Please Don't Go
EXTD=
EXTT0=
EXTT1=
EXTT2=
EXTT3=
EXTT4=
EXTT5=
EXTT6=
EXTT7=
EXTT8=
EXTT9=
EXTT10=
EXTT11=
EXTT12=
EXTT13=
EXTT14=
EXTT15=
EXTT16=
EXTT17=
EXTT18=
EXTT19=
EXTT20=
EXTT21=
EXTT22=
EXTT23=
PLAYORDER=
